<?xml version="1.0" encoding="UTF-8" standalone="no"?>
<!-- Created with Inkscape (http://www.inkscape.org/) -->

<svg
   xmlns:dc="http://purl.org/dc/elements/1.1/"
   xmlns:cc="http://creativecommons.org/ns#"
   xmlns:rdf="http://www.w3.org/1999/02/22-rdf-syntax-ns#"
   xmlns:svg="http://www.w3.org/2000/svg"
   xmlns="http://www.w3.org/2000/svg"
   xmlns:xlink="http://www.w3.org/1999/xlink"
   xmlns:sodipodi="http://sodipodi.sourceforge.net/DTD/sodipodi-0.dtd"
   xmlns:inkscape="http://www.inkscape.org/namespaces/inkscape"
   width="210mm"
   height="297mm"
   viewBox="0 0 210 297"
   version="1.1"
   id="svg8"
   inkscape:version="0.92.2 (5c3e80d, 2017-08-06)"
   sodipodi:docname="pruebas.svg">
  <defs
     id="defs2">
    <linearGradient
       inkscape:collect="always"
       id="linearGradient838">
      <stop
         style="stop-color:#f8ff00;stop-opacity:1"
         offset="0"
         id="stop834" />
      <stop
         style="stop-color:#f80000;stop-opacity:1"
         offset="1"
         id="stop836" />
    </linearGradient>
    <inkscape:perspective
       sodipodi:type="inkscape:persp3d"
       inkscape:vp_x="53.587539 : 152.64268 : 1"
       inkscape:vp_y="0 : 1000 : 0"
       inkscape:vp_z="263.58754 : 152.64268 : 1"
       inkscape:persp3d-origin="158.58754 : 103.14268 : 1"
       id="perspective4506" />
    <radialGradient
       inkscape:collect="always"
       xlink:href="#linearGradient838"
       id="radialGradient842"
       cx="22.320299"
       cy="51.745174"
       fx="22.320299"
       fy="51.745174"
       r="17.138926"
       gradientTransform="matrix(1,0,0,1.0017277,0,-0.0894009)"
       gradientUnits="userSpaceOnUse" />
  </defs>
  <sodipodi:namedview
     id="base"
     pagecolor="#ffffff"
     bordercolor="#666666"
     borderopacity="1.0"
     inkscape:pageopacity="0.0"
     inkscape:pageshadow="2"
     inkscape:zoom="1.979899"
     inkscape:cx="376.10443"
     inkscape:cy="824.08061"
     inkscape:document-units="mm"
     inkscape:current-layer="g4561"
     showgrid="false"
     inkscape:window-width="1920"
     inkscape:window-height="1005"
     inkscape:window-x="-9"
     inkscape:window-y="-9"
     inkscape:window-maximized="1" />
  <metadata
     id="metadata5">
    <rdf:RDF>
      <cc:Work
         rdf:about="">
        <dc:format>image/svg+xml</dc:format>
        <dc:type
           rdf:resource="http://purl.org/dc/dcmitype/StillImage" />
        <dc:title />
      </cc:Work>
    </rdf:RDF>
  </metadata>
  <g
     inkscape:label="Capa 1"
     inkscape:groupmode="layer"
     id="layer1">
    <rect
       id="rect3699"
       width="33.042656"
       height="24.108797"
       x="96.019356"
       y="85.147591"
       style="fill:#f80000;fill-opacity:1;stroke:#000000;stroke-width:0.1470993;stroke-opacity:1"
       ry="8.9880733"
       rx="8.9880724" />
    <g
       id="g4561"
       transform="translate(-7.349912,-1.4699824)">
      <path
         transform="matrix(0.65979516,0,0,0.5252976,15.076651,28.860108)"
         d="m 24.875,34.910156 -2.986328,4.375 a 2.6565373,2.6565373 0 0 1 -3.988281,0.460938 l -3.410157,-3.123047 0.15625,5.292969 a 2.6565373,2.6565373 0 0 1 -2.955078,2.716796 l -4.5957029,-0.523437 3.2402349,4.195313 a 2.6565373,2.6565373 0 0 1 -0.7929692,3.935546 l -4.0234376,2.277344 5.0820308,1.486328 a 2.6565373,2.6565373 0 0 1 1.671876,3.650391 l -1.916016,4.207031 4.984375,-1.783203 a 2.6565373,2.6565373 0 0 1 3.498047,1.972656 l 0.921875,4.529297 2.986328,-4.375 a 2.6565373,2.6565373 0 0 1 3.988281,-0.460937 l 3.41211,3.125 -0.15625,-5.294922 a 2.6565373,2.6565373 0 0 1 2.955078,-2.716797 l 4.59375,0.521484 -3.238282,-4.191406 a 2.6565373,2.6565373 0 0 1 0.792969,-3.935547 l 4.025391,-2.279297 -5.083985,-1.486328 a 2.6565373,2.6565373 0 0 1 -1.671875,-3.65039 l 1.916016,-4.208985 -4.984375,1.785156 a 2.6565373,2.6565373 0 0 1 -3.498047,-1.970703 z"
         id="path4522"
         style="fill:url(#radialGradient842);fill-opacity:1;stroke:#000000;stroke-width:0.26499999;stroke-miterlimit:4;stroke-dasharray:none;stroke-opacity:1"
         inkscape:original="M 24.875 34.910156 L 21.888672 39.285156 A 2.6565373 2.6565373 0 0 1 17.900391 39.746094 L 14.490234 36.623047 L 14.646484 41.916016 A 2.6565373 2.6565373 0 0 1 11.691406 44.632812 L 7.0957031 44.109375 L 10.335938 48.304688 A 2.6565373 2.6565373 0 0 1 9.5429688 52.240234 L 5.5195312 54.517578 L 10.601562 56.003906 A 2.6565373 2.6565373 0 0 1 12.273438 59.654297 L 10.357422 63.861328 L 15.341797 62.078125 A 2.6565373 2.6565373 0 0 1 18.839844 64.050781 L 19.761719 68.580078 L 22.748047 64.205078 A 2.6565373 2.6565373 0 0 1 26.736328 63.744141 L 30.148438 66.869141 L 29.992188 61.574219 A 2.6565373 2.6565373 0 0 1 32.947266 58.857422 L 37.541016 59.378906 L 34.302734 55.1875 A 2.6565373 2.6565373 0 0 1 35.095703 51.251953 L 39.121094 48.972656 L 34.037109 47.486328 A 2.6565373 2.6565373 0 0 1 32.365234 43.835938 L 34.28125 39.626953 L 29.296875 41.412109 A 2.6565373 2.6565373 0 0 1 25.798828 39.441406 L 24.875 34.910156 z "
         inkscape:radius="0"
         sodipodi:type="inkscape:offset" />
      <path
         style="fill:#f80000;fill-opacity:1;stroke:none;stroke-width:0.26499999;stroke-miterlimit:4;stroke-dasharray:none;stroke-opacity:1"
         id="path4565"
         d="m 144.93977,52.725594 c -0.045,0.930794 0.0251,1.859968 0.0938,2.787534 0.1195,0.96706 0.173,1.941036 0.2836,2.908694 0.11897,0.808987 0.22546,1.619679 0.34104,2.429081 0.1157,0.775473 0.2251,1.550334 0.28433,2.332369 0.0498,0.805965 0.0532,1.614225 0.0548,2.421503 0.005,0.690729 0.004,1.381461 0.006,2.072198 0.008,0.531908 -0.18658,1.024837 -0.39756,1.502921 -0.20418,0.47521 -0.49034,0.907039 -0.77043,1.339609 -0.22896,0.373557 -0.47935,0.732997 -0.72277,1.097156 -0.20541,0.337971 -0.49023,0.599749 -0.78286,0.8588 -0.0495,0.04187 -0.099,0.08375 -0.14843,0.125619 0,0 -1.836,0.73709 -1.836,0.73709 v 0 c 0.0512,-0.03887 0.10234,-0.07774 0.15352,-0.116616 0.28568,-0.256309 0.59302,-0.483041 0.80053,-0.813972 0.25133,-0.360095 0.49706,-0.723243 0.73051,-1.094901 0.27589,-0.428876 0.57648,-0.845815 0.7845,-1.313664 0.20944,-0.454131 0.42369,-0.922832 0.43954,-1.430912 0.003,-0.692658 0.006,-1.385308 0.008,-2.077971 -0.004,-0.802817 -0.003,-1.606225 -0.0514,-2.407936 -0.0554,-0.778407 -0.16048,-1.549564 -0.27793,-2.320824 -0.11443,-0.811816 -0.22034,-1.624738 -0.33609,-2.436427 -0.12185,-0.970359 -0.14517,-1.95182 -0.27579,-2.92205 -0.0741,-0.92493 -0.1413,-1.850469 -0.14327,-2.779009 0,0 1.763,-0.898292 1.763,-0.898292 z"
         inkscape:connector-curvature="0" />
      <path
         style="fill:#f80000;fill-opacity:1;stroke:none;stroke-width:0.26499999;stroke-miterlimit:4;stroke-dasharray:none;stroke-opacity:1"
         id="path4567"
         d="m 143.88602,64.355892 c 0.23964,-0.435748 0.44382,-0.888315 0.69765,-1.316355 0.17283,-0.298194 0.35588,-0.587399 0.56002,-0.865016 0.17002,-0.20643 0.34792,-0.401256 0.56577,-0.557297 1.45601,-0.918842 1.60056,-1.04848 2.87628,-1.25531 0.35899,-0.05804 0.72213,-0.07155 1.08497,-0.07742 0.30252,-0.0034 0.60506,-0.0024 0.90758,-0.0019 0.33511,-0.03118 0.52054,0.176694 0.68872,0.43562 0.17557,0.233423 0.30117,0.496874 0.43825,0.753115 0.16559,0.362249 0.34457,0.716709 0.45907,1.099114 0.15764,0.402958 0.27097,0.819528 0.37092,1.239901 0.13831,0.425984 0.21464,0.864759 0.2856,1.305745 0.0741,0.4947 0.14535,0.990724 0.23379,1.483085 0.0799,0.361693 0.12775,0.728924 0.15576,1.097944 0.0202,0.335568 0.0166,0.672015 0.0175,1.008041 0.0156,0.314365 -0.007,0.623364 -0.0544,0.933617 -0.0758,0.41134 -0.22521,0.808069 -0.40017,1.186857 -0.15291,0.360183 -0.37594,0.682477 -0.62174,0.984645 -0.19828,0.207332 -0.37021,0.43425 -0.52109,0.67769 -0.18369,0.241054 -0.29371,0.506058 -0.37251,0.79547 -0.0544,0.204152 -0.0289,0.102531 -0.0765,0.304821 0,0 -1.78641,0.86152 -1.78641,0.86152 v 0 c 0.044,-0.209825 0.0199,-0.105031 0.0725,-0.314356 0.0844,-0.297773 0.13811,-0.60098 0.34716,-0.845405 0.15343,-0.249621 0.2998,-0.503036 0.50949,-0.71189 0.26852,-0.267174 0.49118,-0.592112 0.64975,-0.935345 0.18096,-0.359 0.33117,-0.73624 0.41946,-1.129268 0.0417,-0.303056 0.0947,-0.600631 0.0693,-0.908876 5.3e-4,-0.33188 8e-4,-0.663921 -0.0132,-0.995574 -0.0204,-0.363452 -0.0599,-0.725572 -0.13814,-1.081648 -0.0912,-0.493498 -0.14902,-0.993783 -0.23045,-1.489022 -0.072,-0.435264 -0.14984,-0.869667 -0.28357,-1.291077 -0.098,-0.417023 -0.2057,-0.832429 -0.36935,-1.229376 -0.10433,-0.37143 -0.27867,-0.711845 -0.44174,-1.060227 -0.13716,-0.249717 -0.26311,-0.506373 -0.43257,-0.736759 -0.16795,-0.250547 -0.28235,-0.287176 -0.58208,-0.271584 -0.30044,-7.94e-4 -0.60093,-0.0027 -0.90134,0.0036 -0.35568,0.01082 -0.71133,0.03424 -1.06215,0.09713 -0.27349,0.05072 -0.55514,0.0992 -0.82014,0.185915 -0.56535,0.184994 -1.82623,1.03374 1.37149,-0.83752 -0.23354,0.12867 -0.41826,0.292918 -0.58758,0.498396 -0.23517,0.252367 -0.40554,0.554635 -0.58482,0.847352 -0.27094,0.410442 -0.46422,0.858983 -0.69225,1.293262 0,0 -1.80873,0.81833 -1.80873,0.81833 z"
         inkscape:connector-curvature="0" />
      <path
         style="fill:#f80000;fill-opacity:1;stroke:none;stroke-width:0.26499999;stroke-miterlimit:4;stroke-dasharray:none;stroke-opacity:1"
         id="path4569"
         d="m 156.36085,69.14113 c -0.44066,0.200459 -0.90596,0.351583 -1.32617,0.593537 -0.0705,0.0419 -0.13932,0.08664 -0.2114,0.125693 -0.16028,0.07894 -0.28754,0.139311 -0.44384,0.225335 -0.0685,0.03772 -0.27099,0.156483 -0.20309,0.117626 1.54285,-0.882917 1.98094,-1.17738 1.32202,-0.742469 -0.27491,0.206285 -0.54042,0.426816 -0.70033,0.735455 -0.11046,0.316836 -0.10354,0.658786 -0.1083,0.990298 -2.6e-4,0.372951 0.1433,0.702924 0.374,0.988886 0.17707,0.242723 0.45515,0.369924 0.73379,0.460856 0.30646,0.05913 0.61585,0.107088 0.92542,0.150442 0.39253,0.04766 0.78826,0.05469 1.18316,0.05973 0.24595,-0.01101 0.49739,0.02959 0.74094,-0.02037 0.11429,-0.02344 0.2239,-0.06575 0.3364,-0.09669 0.15987,-0.06477 0.30647,-0.130368 0.45375,-0.219382 0.0501,-0.03027 0.20282,-0.116843 0.15208,-0.0877 -1.59078,0.91354 -2.04175,1.213082 -1.39721,0.790834 0.25469,-0.17439 0.42967,-0.419598 0.56379,-0.692703 0.15991,-0.478314 0.17167,-0.989886 0.18755,-1.48952 0.005,-0.348138 0.0344,-0.69905 -0.0616,-1.037505 -0.10302,-0.229878 -0.26071,-0.381772 -0.47776,-0.501824 -0.24977,-0.131165 -0.50822,-0.256705 -0.77539,-0.349483 -0.27824,-0.07485 -0.55397,-0.146572 -0.84084,-0.181639 -0.29683,-0.02866 -0.59547,-0.0277 -0.89337,-0.0285 -0.16207,-0.01704 -0.31053,0.02503 -0.46298,0.07196 0,0 1.57626,-1.201052 1.57626,-1.201052 v 0 c 0.16353,-0.02668 0.32603,-0.04734 0.4924,-0.03573 0.30389,0.0036 0.60917,0.005 0.91041,0.04989 0.29459,0.04972 0.5831,0.12623 0.86786,0.216424 0.26996,0.112823 0.53931,0.23224 0.79177,0.380478 0.24674,0.159367 0.43354,0.354082 0.55421,0.625877 0.1149,0.358892 0.0901,0.730076 0.0767,1.10262 -0.0167,0.517789 -0.03,1.040376 -0.14739,1.547315 -0.10204,0.309446 -0.27705,0.577477 -0.5186,0.797978 -0.79755,0.589055 -1.68064,1.122574 -2.62393,1.445622 -0.36518,0.08757 -0.7332,0.08989 -1.10738,0.07273 -0.40064,-0.0098 -0.80222,-0.0209 -1.19943,-0.0789 -0.31923,-0.04868 -0.64513,-0.07932 -0.95266,-0.181777 -0.30338,-0.124005 -0.59685,-0.280342 -0.789,-0.555911 -0.24714,-0.32526 -0.41876,-0.690316 -0.43869,-1.104828 1e-5,-0.353918 0.005,-0.710087 0.0699,-1.059135 0.12695,-0.35954 0.37618,-0.601226 0.66574,-0.841711 0.9112,-0.658585 1.93291,-1.140463 2.91255,-1.685272 0.44059,-0.215357 0.90015,-0.393538 1.35548,-0.574712 0,0 -1.5668,1.217245 -1.5668,1.217245 z"
         inkscape:connector-curvature="0" />
      <path
         style="fill:#f80000;fill-opacity:1;stroke:none;stroke-width:0.26499999;stroke-miterlimit:4;stroke-dasharray:none;stroke-opacity:1"
         id="path4571"
         d="m 164.98787,60.426988 c -0.0321,1.007004 -0.0252,2.014821 -0.0266,3.022214 7.9e-4,0.939173 0.0103,1.878327 0.0113,2.817495 0.004,0.697359 0.004,1.394729 0.003,2.092102 -8e-4,0.732526 -0.004,1.465051 2.6e-4,2.197577 0.005,0.491331 0.006,0.982681 0.009,1.474022 -8e-5,0.345462 0.002,0.690923 0.003,1.036384 1.2e-4,0.04812 2.3e-4,0.09623 2.7e-4,0.144349 0,0 -1.76868,0.901186 -1.76868,0.901186 v 0 c 1.1e-4,-0.04823 2.3e-4,-0.09647 2.6e-4,-0.1447 10e-4,-0.346433 0.003,-0.692862 0.003,-1.039294 0.003,-0.494324 0.004,-0.988656 0.009,-1.482969 0.004,-0.732631 10e-4,-1.46526 2.7e-4,-2.197893 -0.001,-0.698392 -5.3e-4,-1.396783 0.003,-2.095164 0.001,-0.943004 0.0105,-1.885995 0.0113,-2.829002 -0.001,-0.998344 0.006,-1.997136 -0.0266,-2.995081 0,0 1.76876,-0.901226 1.76876,-0.901226 z"
         inkscape:connector-curvature="0" />
      <path
         style="fill:#f80000;fill-opacity:1;stroke:none;stroke-width:0.26499999;stroke-miterlimit:4;stroke-dasharray:none;stroke-opacity:1"
         id="path4573"
         d="m 169.70473,70.805219 c -0.46139,-0.02831 -0.91765,0.01503 -1.37534,0.06597 -0.17533,0.02381 -0.36955,0.03401 -0.53753,0.09689 -0.1459,0.05462 -0.28703,0.153051 -0.43006,0.218001 3.00609,-1.750049 1.36678,-0.874514 0.79988,-0.27405 -0.23742,0.235188 -0.38305,0.512022 -0.45894,0.83394 -0.0631,0.269272 0.003,0.500322 0.20658,0.685078 0.17908,0.193551 0.39346,0.329919 0.63781,0.424746 0.26225,0.173196 0.57885,0.181205 0.86502,0.285716 0.30646,0.122729 0.62652,0.191418 0.95412,0.22131 0.27848,-0.0013 0.59504,0.09095 0.84419,-0.06296 0.65814,-0.381246 -0.46773,0.271195 -1.5211,0.867873 -0.0312,0.01767 0.062,-0.03633 0.0902,-0.0585 0.0971,-0.07641 0.16614,-0.171305 0.23286,-0.273421 0.16537,-0.244493 0.22296,-0.521134 0.26036,-0.808587 0.0312,-0.305144 0.0319,-0.612304 0.0325,-0.918705 -0.001,-0.317117 -0.002,-0.634228 -0.001,-0.951344 0.0109,-0.0045 -0.0101,-0.491609 -0.01,-0.491696 1.85305,-0.84831 1.55939,-1.352915 1.90496,-0.632389 0.10881,0.295534 0.25107,0.576234 0.37326,0.86605 0.16249,0.33527 0.30114,0.682808 0.47694,1.011267 0.14901,0.301895 0.35096,0.57482 0.58763,0.813477 0.2233,0.281646 0.52848,0.46327 0.84066,0.632095 0.33879,0.171556 0.7132,0.241236 1.07811,0.333769 0.25251,0.0611 0.5129,0.07471 0.77143,0.08623 0,0 -1.61163,1.156422 -1.61163,1.156422 v 0 c -0.26689,-0.01966 -0.53457,-0.04536 -0.79314,-0.118419 -0.37511,-0.100352 -0.75672,-0.186135 -1.09804,-0.380302 -0.32614,-0.185184 -0.64612,-0.376081 -0.87911,-0.677518 -0.24236,-0.258596 -0.46098,-0.540333 -0.61199,-0.863008 -0.17677,-0.334944 -0.32379,-0.685154 -0.49175,-1.024633 -0.11679,-0.287168 -0.26257,-0.56161 -0.36819,-0.853522 -0.36934,-0.720924 -0.0728,-0.03919 1.68056,-1.08766 0.0208,-0.01243 -0.03,-0.05132 -0.0541,-0.04863 -0.0463,0.0052 -0.0299,0.333542 -0.0309,0.378944 0.002,0.316942 0.003,0.633886 0.003,0.950836 -1.7e-4,0.312949 0.004,0.62643 -0.0223,0.938617 -0.0297,0.297776 -0.0536,0.619837 -0.2247,0.874414 -0.36757,0.838618 -1.38094,1.187897 -2.18306,1.502484 -0.29552,0.04633 -0.59694,0.0091 -0.89327,-0.01445 -0.33435,-0.04678 -0.6572,-0.136973 -0.97425,-0.253061 -0.30148,-0.07881 -0.60638,-0.141105 -0.87925,-0.300961 -0.2564,-0.121645 -0.48729,-0.274026 -0.67915,-0.48623 -0.22373,-0.237924 -0.35747,-0.52438 -0.29927,-0.857443 0.0581,-0.345549 0.16702,-0.678061 0.42362,-0.930093 0.64698,-0.813368 1.73502,-1.21607 2.57381,-1.730068 0.3192,-0.150857 0.64388,-0.248938 1.00093,-0.258262 0.4645,-0.04557 0.92857,-0.0619 1.39538,-0.05506 0,0 -1.606,1.166828 -1.606,1.166828 z"
         inkscape:connector-curvature="0" />
      <path
         style="fill:none;stroke:#000000;stroke-width:0.26458332px;stroke-linecap:butt;stroke-linejoin:miter;stroke-opacity:1"
         d="m 144.05827,40.955793 c 0.13364,0.267269 0.29599,0.522017 0.40091,0.801806 0.0313,0.08342 0,0.178181 0,0.267272 0,0.133633 0,0.267269 0,0.400904 0,0.579083 0,1.158166 0,1.737252 0,0.133633 0,0.267269 0,0.400904 0,0.08909 -0.0175,0.179909 0,0.267269 0.0276,0.138129 0.11048,0.261956 0.13363,0.400905 0.0293,0.175755 0,0.356359 0,0.534538 0,0.53454 0,1.069078 0,1.603618 0,0.979988 0,1.959975 0,2.939965 0,0.489993 0,0.979988 0,1.469983 0,0.111985 0.0284,0.611375 0,0.668173 -0.0199,0.03984 -0.10213,-0.0315 -0.13363,0 -0.0273,0.02732 0.0265,0.34792 0,0.400905 -0.0282,0.05634 -0.19464,0.149336 -0.13364,0.133633 0.21498,-0.05533 0.40949,-0.17155 0.61423,-0.257326"
         id="path4575"
         inkscape:connector-curvature="0" />
      <path
         style="fill:none;stroke:#000000;stroke-width:0.26458332px;stroke-linecap:butt;stroke-linejoin:miter;stroke-opacity:1"
         d="m 144.32554,47.503894 c 0.17818,-0.178178 0.37055,-0.343217 0.53454,-0.534538 0.10452,-0.121943 0.17091,-0.272417 0.26727,-0.400904 0.12651,-0.168677 0.37877,-0.378767 0.53454,-0.534538 0.0445,-0.04454 0.0987,-0.08122 0.13364,-0.133636 0.0552,-0.08288 0.0632,-0.196836 0.13363,-0.267269 0.0315,-0.0315 0.10214,0.0315 0.13363,0 0.0315,-0.0315 -0.0315,-0.102137 0,-0.133635 0.063,-0.063 0.20428,0.063 0.26727,0 0.0315,-0.0315 -0.0315,-0.102137 0,-0.133636 0.063,-0.063 0.18276,0.02817 0.26728,0 0.0891,-0.04454 0.17817,-0.08909 0.26726,-0.133633 0,-0.04454 -0.0315,-0.102137 0,-0.133636 0.0315,-0.0315 0.0891,0 0.13364,0 0.22272,0 0.44545,0 0.66817,0 0.0699,0 0.4994,-0.01757 0.53454,0 0.0563,0.02817 0.0739,0.113715 0.13364,0.133636 0.0845,0.02817 0.19314,-0.04942 0.26727,0 0.0829,0.05525 0.0784,0.184393 0.13363,0.267269 0.18359,0.275383 0.26287,-0.0088 0.40091,0.267269 0.0199,0.03984 -0.0199,0.09379 0,0.133635 0.0282,0.05635 0.10546,0.07729 0.13363,0.133636 0.0199,0.03984 0,0.08909 0,0.133633 0.0445,0.08909 0.0739,0.187584 0.13363,0.267269 0.26106,0.348078 0.27152,0.146378 0.40091,0.53454 0.0141,0.04226 -0.0141,0.09138 0,0.133636 0.0315,0.09449 0.10214,0.172776 0.13363,0.267269 0.0141,0.04226 -0.0199,0.09379 0,0.133633 0.0282,0.05635 0.0987,0.08122 0.13364,0.133636 0.0553,0.08288 0.0891,0.178181 0.13363,0.267269 0.0446,0.08909 0.10214,0.172775 0.13364,0.267271 0.0401,0.120269 -0.0401,0.280633 0,0.400902 0.0199,0.05976 0.11835,0.07252 0.13363,0.133636 0.0324,0.129646 -0.0324,0.271259 0,0.400904 0.0153,0.06112 0.10547,0.07729 0.13364,0.133636 0.0427,0.08539 -0.0359,0.426977 0,0.534538 0.0315,0.09449 0.10213,0.172775 0.13363,0.267269 0.0259,0.07781 0,0.709858 0,0.801809 0,0.356359 0,0.712719 0,1.069078 0,0.04553 0.0241,0.462217 0,0.53454 -0.0315,0.09449 -0.10214,0.172776 -0.13363,0.267269 -0.0141,0.04226 0.0199,0.09379 0,0.133636 -0.0282,0.05634 -0.10546,0.07729 -0.13364,0.133633 -0.084,0.1681 0.19193,0.267269 -0.13363,0.267269"
         id="path4577"
         inkscape:connector-curvature="0" />
      <path
         style="fill:none;stroke:#000000;stroke-width:0.26458332px;stroke-linecap:butt;stroke-linejoin:miter;stroke-opacity:1"
         d="m 155.28359,49.775686 c -0.17818,-0.08909 -0.34555,-0.204274 -0.53454,-0.267269 -0.12677,-0.04226 -0.26726,0 -0.4009,0 -0.35636,0 -0.71272,0 -1.06908,0 -0.60834,0 -0.008,-0.063 -0.4009,0.133633 -0.0398,0.01992 -0.0914,-0.01408 -0.13364,0 -0.24271,0.0809 -0.248,0.114372 -0.4009,0.267272 -0.0445,0.04454 -0.10546,0.07729 -0.13364,0.133633 -0.0199,0.03984 0.0247,0.09657 0,0.133636 -0.0699,0.10483 -0.17818,0.178178 -0.26726,0.267268 -0.0446,0.04455 -0.10547,0.07729 -0.13364,0.133636 -0.0199,0.03984 0.0199,0.09379 0,0.133636 -0.0802,0.160361 -0.32072,0.240541 -0.4009,0.400902 -0.0399,0.07968 0,0.178181 0,0.267271 0,0.400905 0,0.801807 0,1.202711 0,0.105186 -0.0107,0.657445 0,0.668174 0.0315,0.0315 0.10213,-0.0315 0.13363,0 0.0315,0.0315 -0.0315,0.102137 0,0.133636 0.33755,0.337547 0.15405,0.05135 0.40091,0.133635 0.18898,0.063 0.34127,0.218954 0.53453,0.267269 0.12965,0.03241 0.26727,0 0.40091,0 0.26727,0 0.53454,0 0.80181,0 0.11198,0 0.61137,0.0284 0.66817,0 0.0398,-0.01992 -0.0315,-0.102137 0,-0.133635 0.063,-0.063 0.20427,0.063 0.26727,0 0.0315,-0.0315 -0.0199,-0.09379 0,-0.133634 0.0282,-0.05635 0.0891,-0.08909 0.13363,-0.133635 0.0445,-0.04455 0.0891,-0.08909 0.13364,-0.133636 0.0891,-0.08909 0.17818,-0.178178 0.26727,-0.267269 0,-0.04454 -0.0199,-0.09379 0,-0.133633 0.0282,-0.05635 0.10546,-0.07729 0.13363,-0.133636 0.0199,-0.03984 0,-0.08909 0,-0.133636 0,-0.07466 -0.0263,-0.589311 0,-0.668173 0.17818,-0.534538 0.0445,-0.04454 0.40091,-0.400905 0.0315,-0.0315 0,-0.08909 0,-0.133633 0,-0.356359 0,-0.712718 0,-1.069078 0,-0.08909 0.0534,-0.195998 0,-0.267271 -0.0964,-0.128487 -0.26727,-0.178179 -0.40091,-0.267269 z"
         id="path4579"
         inkscape:connector-curvature="0" />
      <path
         style="fill:none;stroke:#000000;stroke-width:0.26458332px;stroke-linecap:butt;stroke-linejoin:miter;stroke-opacity:1"
         d="m 157.82265,44.697565 c 0.2481,1.48858 -0.0689,0.263183 0.40091,1.202713 0.0199,0.03984 0,0.08909 0,0.133636 0,0.222724 0,0.445447 0,0.668174 0,0.04454 -0.0108,0.09042 0,0.133633 0.27808,1.112313 -0.009,-0.161312 0.26727,0.668173 0.0141,0.04226 0,0.08909 0,0.133636 0,0.133636 0,0.267269 0,0.400904 0,0.08909 -0.0216,0.18084 0,0.267269 0.0242,0.09663 0.10948,0.170638 0.13363,0.267269 0.0216,0.08643 0,0.178181 0,0.267272 0,0.08909 0,0.178178 0,0.267268 0,0.133636 -0.0324,0.271259 0,0.400905 0.0153,0.06111 0.11372,0.07387 0.13364,0.133633 0.0563,0.169037 -0.035,0.35982 0,0.534541 0.0276,0.138128 0.0995,0.264247 0.13363,0.400904 0.0216,0.08643 0,0.178178 0,0.267269 0,0.178181 0,0.356359 0,0.53454 0,0.119431 -0.0213,0.625586 0,0.668174 0.0282,0.05635 0.11372,0.07387 0.13364,0.133633 0.0204,0.06117 0,0.593585 0,0.668176 0,0.445447 0,0.890897 0,1.336347"
         id="path4581"
         inkscape:connector-curvature="0" />
      <path
         style="fill:none;stroke:#000000;stroke-width:0.26458332px;stroke-linecap:butt;stroke-linejoin:miter;stroke-opacity:1"
         d="m 163.96985,50.711131 c -0.17818,-0.133636 -0.34355,-0.286314 -0.53453,-0.400905 -0.0267,-0.01601 -0.35177,0 -0.40091,0 -0.48572,0 -0.40413,-0.06521 -0.80181,0.133633 -0.0891,0.04455 -0.19684,0.0632 -0.26727,0.133636 -0.0704,0.07043 -0.0632,0.196837 -0.13363,0.267269 -0.063,0.063 -0.18275,-0.02817 -0.26727,0 -0.0945,0.0315 -0.17278,0.102137 -0.26727,0.133636 -0.0423,0.01408 -0.10214,-0.0315 -0.13364,0 -0.0315,0.0315 0.0315,0.102137 0,0.133633 -0.0315,0.0315 -0.0938,-0.01992 -0.13363,0 -0.11269,0.05635 -0.15458,0.210926 -0.26727,0.267271 -0.0398,0.01992 -0.10214,-0.0315 -0.13363,0 -0.0315,0.0315 0.0247,0.09657 0,0.133633 -0.0699,0.104834 -0.17819,0.178181 -0.26728,0.267272 -0.0891,0.08909 -0.16243,0.197379 -0.26726,0.267269 -0.0371,0.02471 -0.10214,-0.0315 -0.13364,0 -0.0704,0.07043 -0.0632,0.196837 -0.13363,0.267269 -0.17818,0.178181 -0.13364,-0.222724 -0.13364,0.133635 0,0.222724 0,0.445448 0,0.668174 0,0.04454 -0.0315,0.102137 0,0.133633 0.0315,0.0315 0.10214,-0.0315 0.13364,0 0.0315,0.0315 -0.0399,0.113715 0,0.133636 0.11298,0.05649 0.52535,-0.04761 0.66817,0 0.0945,0.0315 0.1696,0.114101 0.26727,0.133635 0.13104,0.02622 0.26727,0 0.4009,0 0.35636,0 0.71272,0 1.06908,0 0.25849,0 0.73521,0.0666 0.93544,-0.133635 0.0704,-0.07043 0.0784,-0.184394 0.13364,-0.267269 0.0699,-0.104833 0.21092,-0.15458 0.26727,-0.267269 0.0199,-0.03984 -0.0199,-0.0938 0,-0.133636 0.0282,-0.05635 0.11371,-0.07387 0.13363,-0.133636 0.0255,-0.07657 0,-0.542713 0,-0.668173 0,-0.04454 -0.0315,-0.102137 0,-0.133633 0.63878,-0.638784 0.006,0.382151 0.26727,-0.400905 0.0199,-0.05976 0.13364,-0.07064 0.13364,-0.133635 0,-0.183664 -0.28057,-0.644737 -0.13364,-0.534538 0.30655,0.229912 0.43826,0.628891 0.66818,0.935442 0.0378,0.0504 0.0987,0.08122 0.13363,0.133636 0.0553,0.08288 0.0784,0.184391 0.13364,0.267269 0.0699,0.10483 0.21092,0.154577 0.26727,0.267269 0.0199,0.03984 -0.0199,0.09379 0,0.133635 0.0177,0.03548 0.36542,0.383162 0.4009,0.400905 0.0398,0.01992 0.10214,-0.0315 0.13363,0 0.0315,0.0315 -0.0199,0.09379 0,0.133633 0.0826,0.165134 0.12903,0.133636 0.26728,0.133636"
         id="path4583"
         inkscape:connector-curvature="0" />
    </g>
    <path
       sodipodi:type="star"
       style="fill:#f8d600;fill-opacity:1;stroke:#000000;stroke-width:0.26458332;stroke-opacity:1"
       id="path4524"
       sodipodi:sides="5"
       sodipodi:cx="63.476511"
       sodipodi:cy="58.59558"
       sodipodi:r1="10.290745"
       sodipodi:r2="5.1453724"
       sodipodi:arg1="0.012986283"
       sodipodi:arg2="0.64130481"
       inkscape:flatsided="false"
       inkscape:rounded="0"
       inkscape:randomized="0"
       d="m 73.766386,58.729216 -6.166808,2.94454 -1.070416,6.749375 -4.706073,-4.95507 -6.749814,1.067645 3.258296,-6.006942 -3.101199,-6.089534 6.719811,1.242576 4.833167,-4.831184 0.894776,6.774896 z" />
    <path
       sodipodi:type="star"
       style="fill:#00d600;fill-opacity:1;stroke:#000000;stroke-width:0.26458332;stroke-opacity:1"
       id="path4526"
       sodipodi:sides="10"
       sodipodi:cx="36.482197"
       sodipodi:cy="81.045815"
       sodipodi:r1="12.086376"
       sodipodi:r2="9.7780828"
       sodipodi:arg1="0.61253756"
       sodipodi:arg2="0.92669683"
       inkscape:flatsided="true"
       inkscape:rounded="0"
       inkscape:randomized="0"
       d="m 46.371169,87.994822 -5.97315,4.48545 -7.468861,0.117876 -6.111721,-4.294723 -2.420111,-7.066884 2.195898,-7.139734 5.97315,-4.48545 7.468861,-0.117876 6.111722,4.294723 2.420111,7.066884 z"
       inkscape:transform-center-x="0.81567184"
       inkscape:transform-center-y="0.045805946"
       transform="matrix(0.7429046,0,0,0.77719674,12.519822,18.792263)" />
    <path
       sodipodi:type="star"
       style="fill:#00d600;fill-opacity:1;stroke:#000000;stroke-width:0.26458332;stroke-opacity:1"
       id="path4531"
       sodipodi:sides="5"
       sodipodi:cx="62.541068"
       sodipodi:cy="81.179864"
       sodipodi:r1="9.3295822"
       sodipodi:r2="7.547791"
       sodipodi:arg1="0.66355573"
       sodipodi:arg2="1.2918743"
       inkscape:flatsided="true"
       inkscape:rounded="0"
       inkscape:randomized="0"
       d="m 69.890981,86.926158 -10.543715,3.019589 -6.129988,-9.094564 6.755175,-8.64034 10.304915,3.754541 z"
       inkscape:transform-center-x="0.79374681"
       inkscape:transform-center-y="-0.10156876" />
    <ellipse
       style="fill:#ff00fe;fill-opacity:1;stroke:#000000;stroke-width:0.26458332;stroke-opacity:1"
       id="path4533"
       cx="51.248932"
       cy="110.9136"
       rx="10.490329"
       ry="10.757599" />
    <path
       sodipodi:type="spiral"
       style="fill:none;fill-rule:evenodd;stroke:#000000;stroke-width:0.26458332"
       id="path4535"
       sodipodi:cx="101.8297"
       sodipodi:cy="59.263756"
       sodipodi:expansion="1"
       sodipodi:revolution="3"
       sodipodi:radius="13.654963"
       sodipodi:argument="-15.914955"
       sodipodi:t0="0"
       d="m 101.8297,59.263756 c -0.67003,0.140705 -0.52024,-0.83376 -0.23386,-1.113623 0.77605,-0.758413 2.00527,-0.159233 2.4611,0.645902 0.81538,1.440197 -0.11958,3.187246 -1.52566,3.80859 -2.06348,0.911848 -4.388879,-0.396633 -5.156076,-2.405427 -1.022553,-2.677406 0.672324,-5.597963 3.285186,-6.503558 3.28803,-1.139599 6.81072,0.947189 7.85105,4.164953 1.25997,3.897143 -1.22156,8.02556 -5.04472,9.198525 -4.505463,1.382298 -9.241711,-1.495603 -10.546009,-5.924478 -1.505863,-5.113313 1.769439,-10.458734 6.804241,-11.893493 5.720858,-1.630263 11.676368,2.043129 13.240978,7.684004 1.75525,6.328209 -2.31671,12.894446 -8.56377,14.588459 -6.935412,1.880676 -14.112858,-2.590216 -15.935941,-9.443528" />
  </g>
</svg>
